<svg xmlns="http://www.w3.org/2000/svg" viewBox="0 0 64 64" width="32" height="32" fill="none">
  <circle cx="32" cy="32" r="30" stroke="#4CAF50" stroke-width="4" fill="#A5D6A7"/>
  <path d="M32 12c-2 0-4 1.5-4 3.5s1.5 3.5 4 3.5 4-1.5 4-3.5S34 12 32 12zm-6 15c0-3 2-6 6-6s6 3 6 6c0 3-2 6-6 6s-6-3-6-6zm-10 10c1.5-2.5 4-4 7-4s5.5 1.5 7 4c-4.5 5-9 7-14 7s-9.5-2-14-7c1.5-2.5 4-4 7-4s5.5 1.5 7 4zm24 0c1.5-2.5 4-4 7-4s5.5 1.5 7 4c-4.5 5-9 7-14 7s-9.5-2-14-7c1.5-2.5 4-4 7-4s5.5 1.5 7 4z" fill="#388E3C"/>
</svg>
